<svg xmlns="http://www.w3.org/2000/svg" width="360" height="360" viewBox="0 0 360 360"><rect width="360" height="360" fill="none"/><g fill="none" stroke-linecap="round" stroke-linejoin="round" opacity=".55"><path d="M28 62c36-22 72-22 108 0s72 22 108 0" stroke="#fff" stroke-width="5"/><path d="M34 242 78 198l44 44 44-44 44 44" stroke="#ffcc29" stroke-width="9"/><path d="M222 118h70M257 83v70" stroke="#e8175d" stroke-width="10"/><circle cx="77" cy="112" r="22" stroke="#fff" stroke-width="6"/><circle cx="292" cy="260" r="34" stroke="#00a650" stroke-width="7"/><path d="M42 305h28v28H42zm42 0h28v28H84zm42 0h28v28h-28z" fill="#ffcc29" stroke="none" opacity=".8"/><path d="M250 35h28v28h-28zm42 0h28v28h-28" fill="#00a650" stroke="none" opacity=".75"/></g></svg>